<mxfile host="app.diagrams.net" modified="2023-04-19T11:01:32.703Z" agent="5.0 (Windows NT 10.0; Win64; x64) AppleWebKit/537.36 (KHTML, like Gecko) Chrome/112.0.0.0 Safari/537.36" etag="fmmKOl2NwLnxOO_3jmTl" version="20.0.1" type="github">
  <diagram id="4jDcUSaSlemddiHzjxZr" name="Page-1">
    <mxGraphModel dx="1171" dy="786" grid="1" gridSize="10" guides="1" tooltips="1" connect="1" arrows="1" fold="1" page="1" pageScale="1" pageWidth="827" pageHeight="1169" math="0" shadow="0">
      <root>
        <mxCell id="0" />
        <mxCell id="1" parent="0" />
        <mxCell id="Z8KrhSS5ICCvX1Cq2tPb-1" value="" style="swimlane;startSize=0;" vertex="1" parent="1">
          <mxGeometry x="180" y="180" width="170" height="160" as="geometry" />
        </mxCell>
        <mxCell id="Z8KrhSS5ICCvX1Cq2tPb-5" value="REST API (Spring boot)" style="text;html=1;align=center;verticalAlign=middle;resizable=0;points=[];autosize=1;strokeColor=none;fillColor=none;" vertex="1" parent="Z8KrhSS5ICCvX1Cq2tPb-1">
          <mxGeometry x="15" y="70" width="140" height="20" as="geometry" />
        </mxCell>
        <mxCell id="Z8KrhSS5ICCvX1Cq2tPb-2" value="&lt;b&gt;BDD&lt;/b&gt;" style="shape=cylinder3;whiteSpace=wrap;html=1;boundedLbl=1;backgroundOutline=1;size=15;" vertex="1" parent="1">
          <mxGeometry x="40" y="220" width="60" height="80" as="geometry" />
        </mxCell>
        <mxCell id="Z8KrhSS5ICCvX1Cq2tPb-4" value="" style="endArrow=classic;startArrow=classic;html=1;rounded=0;" edge="1" parent="1">
          <mxGeometry width="50" height="50" relative="1" as="geometry">
            <mxPoint x="100" y="259.5" as="sourcePoint" />
            <mxPoint x="180" y="259.5" as="targetPoint" />
            <Array as="points">
              <mxPoint x="140" y="259.5" />
            </Array>
          </mxGeometry>
        </mxCell>
        <mxCell id="Z8KrhSS5ICCvX1Cq2tPb-6" value="" style="swimlane;startSize=0;fillColor=default;strokeColor=#666666;fontColor=#333333;gradientColor=none;" vertex="1" parent="1">
          <mxGeometry x="540" y="40" width="180" height="120" as="geometry" />
        </mxCell>
        <mxCell id="Z8KrhSS5ICCvX1Cq2tPb-7" value="WEB" style="text;html=1;align=center;verticalAlign=middle;resizable=0;points=[];autosize=1;strokeColor=none;fillColor=none;" vertex="1" parent="Z8KrhSS5ICCvX1Cq2tPb-6">
          <mxGeometry x="60" y="50" width="40" height="20" as="geometry" />
        </mxCell>
        <mxCell id="Z8KrhSS5ICCvX1Cq2tPb-10" value="APP" style="verticalLabelPosition=bottom;verticalAlign=top;html=1;shape=mxgraph.basic.corner_round_rect;dx=6;rotation=90;fillColor=#f5f5f5;fontColor=#333333;strokeColor=#666666;" vertex="1" parent="1">
          <mxGeometry x="580" y="330" width="100" height="60" as="geometry" />
        </mxCell>
        <mxCell id="Z8KrhSS5ICCvX1Cq2tPb-11" value="" style="endArrow=classic;startArrow=classic;html=1;rounded=0;strokeWidth=3;" edge="1" parent="1">
          <mxGeometry width="50" height="50" relative="1" as="geometry">
            <mxPoint x="360" y="250" as="sourcePoint" />
            <mxPoint x="530" y="100" as="targetPoint" />
          </mxGeometry>
        </mxCell>
        <mxCell id="Z8KrhSS5ICCvX1Cq2tPb-12" value="" style="endArrow=classic;startArrow=classic;html=1;rounded=0;strokeWidth=3;" edge="1" parent="1">
          <mxGeometry width="50" height="50" relative="1" as="geometry">
            <mxPoint x="360" y="290" as="sourcePoint" />
            <mxPoint x="580" y="370" as="targetPoint" />
          </mxGeometry>
        </mxCell>
        <mxCell id="Z8KrhSS5ICCvX1Cq2tPb-13" value="" style="swimlane;startSize=0;fillColor=#ffe6cc;strokeColor=#d79b00;strokeWidth=4;" vertex="1" parent="1">
          <mxGeometry x="30" y="40" width="350" height="430" as="geometry" />
        </mxCell>
        <mxCell id="Z8KrhSS5ICCvX1Cq2tPb-14" value="SERVER" style="text;html=1;align=center;verticalAlign=middle;resizable=0;points=[];autosize=1;strokeColor=none;fillColor=none;fontStyle=1;fontSize=16;" vertex="1" parent="Z8KrhSS5ICCvX1Cq2tPb-13">
          <mxGeometry x="135" y="40" width="80" height="20" as="geometry" />
        </mxCell>
        <mxCell id="Z8KrhSS5ICCvX1Cq2tPb-15" value="MySQL" style="text;html=1;align=center;verticalAlign=middle;resizable=0;points=[];autosize=1;strokeColor=none;fillColor=none;" vertex="1" parent="Z8KrhSS5ICCvX1Cq2tPb-13">
          <mxGeometry x="10" y="270" width="60" height="20" as="geometry" />
        </mxCell>
        <mxCell id="Z8KrhSS5ICCvX1Cq2tPb-16" value="Actor" style="shape=umlActor;verticalLabelPosition=bottom;verticalAlign=top;html=1;outlineConnect=0;" vertex="1" parent="1">
          <mxGeometry x="770" y="70" width="30" height="60" as="geometry" />
        </mxCell>
        <mxCell id="Z8KrhSS5ICCvX1Cq2tPb-21" value="CMS" style="whiteSpace=wrap;html=1;aspect=fixed;dashed=1;" vertex="1" parent="1">
          <mxGeometry x="500" y="540" width="130" height="130" as="geometry" />
        </mxCell>
        <mxCell id="Z8KrhSS5ICCvX1Cq2tPb-22" value="" style="endArrow=classic;startArrow=classic;html=1;rounded=0;dashed=1;" edge="1" parent="1">
          <mxGeometry width="50" height="50" relative="1" as="geometry">
            <mxPoint x="560" y="530" as="sourcePoint" />
            <mxPoint x="610" y="420" as="targetPoint" />
            <Array as="points">
              <mxPoint x="560" y="510" />
              <mxPoint x="580" y="480" />
            </Array>
          </mxGeometry>
        </mxCell>
        <mxCell id="Z8KrhSS5ICCvX1Cq2tPb-24" value="Admin" style="text;html=1;align=center;verticalAlign=middle;resizable=0;points=[];autosize=1;strokeColor=#82b366;fillColor=#d5e8d4;" vertex="1" parent="1">
          <mxGeometry x="725" y="90" width="50" height="20" as="geometry" />
        </mxCell>
        <mxCell id="Z8KrhSS5ICCvX1Cq2tPb-25" value="User" style="text;html=1;align=center;verticalAlign=middle;resizable=0;points=[];autosize=1;strokeColor=#82b366;fillColor=#d5e8d4;" vertex="1" parent="1">
          <mxGeometry x="675" y="360" width="40" height="20" as="geometry" />
        </mxCell>
        <mxCell id="Z8KrhSS5ICCvX1Cq2tPb-26" value="Actor" style="shape=umlActor;verticalLabelPosition=bottom;verticalAlign=top;html=1;outlineConnect=0;" vertex="1" parent="1">
          <mxGeometry x="720" y="340" width="30" height="60" as="geometry" />
        </mxCell>
        <mxCell id="Z8KrhSS5ICCvX1Cq2tPb-27" value="jwt" style="text;html=1;align=center;verticalAlign=middle;resizable=0;points=[];autosize=1;strokeColor=none;fillColor=none;" vertex="1" parent="1">
          <mxGeometry x="410" y="160" width="30" height="20" as="geometry" />
        </mxCell>
        <mxCell id="Z8KrhSS5ICCvX1Cq2tPb-28" value="jwt" style="text;html=1;strokeColor=none;fillColor=none;align=center;verticalAlign=middle;whiteSpace=wrap;rounded=0;" vertex="1" parent="1">
          <mxGeometry x="460" y="300" width="60" height="30" as="geometry" />
        </mxCell>
        <mxCell id="Z8KrhSS5ICCvX1Cq2tPb-29" value="contentful" style="text;html=1;strokeColor=none;fillColor=none;align=center;verticalAlign=middle;whiteSpace=wrap;rounded=0;" vertex="1" parent="1">
          <mxGeometry x="540" y="680" width="60" height="30" as="geometry" />
        </mxCell>
        <mxCell id="Z8KrhSS5ICCvX1Cq2tPb-30" value="Actor" style="shape=umlActor;verticalLabelPosition=bottom;verticalAlign=top;html=1;outlineConnect=0;dashed=1;" vertex="1" parent="1">
          <mxGeometry x="675" y="570" width="30" height="60" as="geometry" />
        </mxCell>
        <mxCell id="Z8KrhSS5ICCvX1Cq2tPb-31" value="Admin" style="text;html=1;align=center;verticalAlign=middle;resizable=0;points=[];autosize=1;strokeColor=#82b366;fillColor=#d5e8d4;" vertex="1" parent="1">
          <mxGeometry x="705" y="600" width="50" height="20" as="geometry" />
        </mxCell>
        <mxCell id="Z8KrhSS5ICCvX1Cq2tPb-32" value="CRUD(user)&lt;br&gt;CRUD(forms)&lt;br&gt;CRUD(questionaris)" style="shape=document;whiteSpace=wrap;html=1;boundedLbl=1;dashed=1;fontSize=16;strokeWidth=4;fillColor=#f5f5f5;fontColor=#333333;strokeColor=#666666;" vertex="1" parent="1">
          <mxGeometry x="545" y="170" width="170" height="80" as="geometry" />
        </mxCell>
        <mxCell id="Z8KrhSS5ICCvX1Cq2tPb-33" value="user/add&lt;br&gt;user/all&lt;br&gt;user/delete/{id}&lt;br&gt;user/update/{id}" style="whiteSpace=wrap;html=1;dashed=1;fontSize=16;strokeWidth=4;fillColor=#fff2cc;strokeColor=#d6b656;" vertex="1" parent="1">
          <mxGeometry x="240" y="560" width="140" height="100" as="geometry" />
        </mxCell>
        <mxCell id="Z8KrhSS5ICCvX1Cq2tPb-34" value="&lt;b&gt;Rest endpoints&lt;/b&gt;" style="text;html=1;align=center;verticalAlign=middle;resizable=0;points=[];autosize=1;strokeColor=none;fillColor=none;fontSize=16;" vertex="1" parent="1">
          <mxGeometry x="25" y="510" width="130" height="20" as="geometry" />
        </mxCell>
        <mxCell id="Z8KrhSS5ICCvX1Cq2tPb-35" value="form/add&lt;br&gt;form/all&lt;br&gt;form/delete/{id}&lt;br&gt;form/update/{id}" style="whiteSpace=wrap;html=1;dashed=1;fontSize=16;strokeWidth=4;fillColor=#dae8fc;strokeColor=#6c8ebf;" vertex="1" parent="1">
          <mxGeometry x="240" y="680" width="140" height="100" as="geometry" />
        </mxCell>
        <mxCell id="Z8KrhSS5ICCvX1Cq2tPb-36" value="questionari/add&lt;br&gt;questionari/all&lt;br&gt;questionari/delete/{id}&lt;br&gt;questionari/update/{id}" style="whiteSpace=wrap;html=1;dashed=1;fontSize=16;strokeWidth=4;fillColor=#e1d5e7;strokeColor=#9673a6;" vertex="1" parent="1">
          <mxGeometry x="200" y="810" width="180" height="100" as="geometry" />
        </mxCell>
        <mxCell id="Z8KrhSS5ICCvX1Cq2tPb-37" value="&lt;b&gt;Users&lt;/b&gt;" style="text;html=1;align=center;verticalAlign=middle;resizable=0;points=[];autosize=1;strokeColor=none;fillColor=none;fontSize=16;" vertex="1" parent="1">
          <mxGeometry x="80" y="600" width="60" height="20" as="geometry" />
        </mxCell>
        <mxCell id="Z8KrhSS5ICCvX1Cq2tPb-38" value="&lt;b&gt;Forms&lt;/b&gt;" style="text;html=1;align=center;verticalAlign=middle;resizable=0;points=[];autosize=1;strokeColor=none;fillColor=none;fontSize=16;" vertex="1" parent="1">
          <mxGeometry x="80" y="720" width="60" height="20" as="geometry" />
        </mxCell>
        <mxCell id="Z8KrhSS5ICCvX1Cq2tPb-39" value="&lt;b&gt;Questionari&lt;/b&gt;" style="text;html=1;align=center;verticalAlign=middle;resizable=0;points=[];autosize=1;strokeColor=none;fillColor=none;fontSize=16;" vertex="1" parent="1">
          <mxGeometry x="80" y="850" width="100" height="20" as="geometry" />
        </mxCell>
        <mxCell id="Z8KrhSS5ICCvX1Cq2tPb-40" value="&lt;b&gt;Next.js&lt;/b&gt;" style="text;html=1;strokeColor=none;fillColor=none;align=center;verticalAlign=middle;whiteSpace=wrap;rounded=0;dashed=1;fontSize=16;" vertex="1" parent="1">
          <mxGeometry x="600" y="10" width="60" height="30" as="geometry" />
        </mxCell>
        <mxCell id="Z8KrhSS5ICCvX1Cq2tPb-41" value="&lt;b&gt;React Ntive&lt;/b&gt;" style="text;html=1;strokeColor=none;fillColor=none;align=center;verticalAlign=middle;whiteSpace=wrap;rounded=0;dashed=1;fontSize=16;" vertex="1" parent="1">
          <mxGeometry x="580" y="280" width="120" height="30" as="geometry" />
        </mxCell>
        <mxCell id="Z8KrhSS5ICCvX1Cq2tPb-42" value="CRU(user)&lt;br&gt;R(forms)&lt;br&gt;R(questionaris)" style="shape=document;whiteSpace=wrap;html=1;boundedLbl=1;dashed=1;fontSize=16;strokeWidth=4;fillColor=#f5f5f5;fontColor=#333333;strokeColor=#666666;" vertex="1" parent="1">
          <mxGeometry x="630" y="430" width="170" height="80" as="geometry" />
        </mxCell>
        <mxCell id="Z8KrhSS5ICCvX1Cq2tPb-43" value=":8081" style="text;html=1;align=center;verticalAlign=middle;resizable=0;points=[];autosize=1;strokeColor=none;fillColor=none;fontSize=16;" vertex="1" parent="1">
          <mxGeometry x="280" y="350" width="60" height="20" as="geometry" />
        </mxCell>
      </root>
    </mxGraphModel>
  </diagram>
</mxfile>
